#!OML:ASF E:\Style4\Style4.ASF
:FULLY-SPECIFIED
:DEGREES
950
root -0.33035 16.4237 -1.96265 5.30064 9.58621 4.55727
lowerback 18.905 5.08073 0.585908
upperback 10.0676 6.73674 -2.38958
thorax 0.694696 3.51322 -4.0348
lowerneck 5.96735 -1.37197 -2.9657
upperneck -7.20891 -1.93129 2.2518
head -3.33055 -0.966246 1.35136
rclavicle -3.93594e-014 4.21423e-014
rhumerus 6.97307 20.3311 -78.6941
rradius 126.799
rwrist 23.8646
rhand 18.3222 -1.83399
rfingers 7.12502
rthumb 42.969 -26.0909
lclavicle -3.93594e-014 4.21423e-014
lhumerus 4.43597 -12.3914 78.5889
lradius 134.001
lwrist -13.3607
lhand 10.0257 36.6428
lfingers 7.12502
lthumb 35.1507 63.1635
rfemur -38.0909 -5.20005 15.7865
rtibia 62.7207
rfoot -26.9199 -16.8828
rtoes -10.2747
lfemur -38.8376 -3.58351 -22.1334
ltibia 57.19
lfoot -21.8383 1.66933
ltoes -18.5416
951
root -0.331933 16.4238 -1.96584 5.35225 9.50276 4.58068
lowerback 18.8905 5.11843 0.536742
upperback 10.0891 6.77787 -2.40864
thorax 0.725357 3.53307 -4.03178
lowerneck 5.95509 -1.39016 -2.9569
upperneck -7.23302 -1.95365 2.26103
head -3.33584 -0.977808 1.35402
rclavicle 2.3059e-014 -4.77083e-014
rhumerus 7.02277 20.2469 -78.6769
rradius 126.771
rwrist 23.8863
rhand 18.3081 -1.88017
rfingers 7.12502
rthumb 42.9559 -26.1417
lclavicle 2.3059e-014 -4.77083e-014
lhumerus 4.58981 -12.5245 78.471
lradius 133.922
lwrist -13.3404
lhand 9.77722 36.6585
lfingers 7.12502
lthumb 34.915 63.2344
rfemur -38.1711 -5.17306 15.7715
rtibia 62.7121
rfoot -26.843 -16.8796
rtoes -10.5158
lfemur -38.9046 -3.53821 -22.1561
ltibia 57.2123
lfoot -21.8322 1.7412
ltoes -18.4268
952
root -0.331739 16.4244 -1.96831 5.34171 9.38322 4.52136
lowerback 18.8758 5.14906 0.54595
upperback 10.138 6.82001 -2.38697
thorax 0.787373 3.5552 -4.01636
lowerneck 5.94818 -1.41257 -2.9227
upperneck -7.28203 -1.9853 2.1964
head -3.35103 -0.991587 1.32862
rclavicle 6.36111e-015 -1.27222e-014
rhumerus 7.15827 20.2118 -78.558
rradius 126.736
rwrist 23.8509
rhand 18.1756 -2.06509
rfingers 7.12502
rthumb 42.8319 -26.3702
lclavicle 6.36111e-015 -1.27222e-014
lhumerus 4.7977 -12.5193 78.3856
lradius 133.859
lwrist -13.317
lhand 9.8941 36.7087
lfingers 7.12502
lthumb 35.0259 63.2587
rfemur -38.1811 -5.11217 15.8373
rtibia 62.6621
rfoot -26.7623 -16.8848
rtoes -10.6775
lfemur -38.9057 -3.44325 -22.0985
ltibia 57.239
lfoot -21.8547 1.70611
ltoes -18.0964
953
root -0.329175 16.4246 -1.97009 5.31778 9.22669 4.46005
lowerback 18.8715 5.18238 0.549918
upperback 10.1744 6.86404 -2.35702
thorax 0.829008 3.57709 -3.99147
lowerneck 5.96662 -1.43292 -2.90414
upperneck -7.32706 -2.01705 2.12441
head -3.36978 -1.00478 1.30395
rclavicle -2.70347e-014 3.89618e-014
rhumerus 7.31545 20.1585 -78.4086
rradius 126.692
rwrist 23.6923
rhand 18.2591 -2.06852
rfingers 7.12502
rthumb 42.91 -26.3462
lclavicle -2.70347e-014 3.89618e-014
lhumerus 4.99752 -12.4755 78.3725
lradius 133.771
lwrist -13.3704
lhand 10.0297 36.8171
lfingers 7.12502
lthumb 35.1545 63.3369
rfemur -38.2115 -5.0316 15.8852
rtibia 62.586
rfoot -26.6433 -16.9603
rtoes -10.9871
lfemur -38.8883 -3.36593 -22.041
ltibia 57.2634
lfoot -21.8805 1.68827
ltoes -17.7966
954
root -0.326719 16.4253 -1.9737 5.33145 9.08944 4.39838
lowerback 18.9042 5.16801 0.557544
upperback 10.16 6.84419 -2.34694
thorax 0.794705 3.56568 -3.98608
lowerneck 5.92816 -1.41793 -2.94222
upperneck -7.30399 -2.00112 2.10485
head -3.35471 -0.99498 1.30252
rclavicle 8.42847e-014 -5.88403e-014
rhumerus 7.45165 20.06 -78.3661
rradius 126.629
rwrist 23.6855
rhand 18.6394 -1.6905
rfingers 7.12502
rthumb 43.2655 -25.8419
lclavicle 8.42847e-014 -5.88403e-014
lhumerus 5.10845 -12.4 78.3324
lradius 133.731
lwrist -13.3823
lhand 10.07 36.8987
lfingers 7.12502
lthumb 35.1928 63.4095
rfemur -38.2829 -4.98063 15.9428
rtibia 62.4943
rfoot -26.4829 -17.0536
rtoes -11.6137
lfemur -38.9237 -3.31961 -21.9782
ltibia 57.2957
lfoot -21.9185 1.78606
ltoes -17.812
955
root -0.324783 16.4262 -1.97744 5.3823 8.92841 4.37539
lowerback 18.9661 5.14446 0.532293
upperback 10.097 6.80465 -2.36779
thorax 0.691732 3.54213 -3.99799
lowerneck 5.88343 -1.38659 -3.01227
upperneck -7.233 -1.96024 2.15933
head -3.32203 -0.975165 1.32931
rclavicle -5.04913e-014 4.49253e-014
rhumerus 7.56554 19.941 -78.3837
rradius 126.551
rwrist 23.8714
rhand 19.12 -1.23947
rfingers 7.12502
rthumb 43.7144 -25.228
lclavicle -5.04913e-014 4.49253e-014
lhumerus 5.12014 -12.3432 78.2441
lradius 133.745
lwrist -13.3679
lhand 10.0442 36.9213
lfingers 7.12502
lthumb 35.1683 63.4379
rfemur -38.3662 -4.89432 15.9526
rtibia 62.423
rfoot -26.5712 -16.8285
rtoes -11.0228
lfemur -38.9912 -3.24474 -21.9603
ltibia 57.3155
lfoot -21.945 1.95716
ltoes -18.0642
956
root -0.320397 16.4278 -1.97968 5.38888 8.74172 4.33163
lowerback 19.0759 5.1239 0.564832
upperback 10.02 6.77688 -2.38991
thorax 0.557362 3.52622 -4.05075
lowerneck 5.87701 -1.37282 -3.02029
upperneck -7.16155 -1.94229 2.16605
head -3.29656 -0.966719 1.33094
rclavicle -7.51406e-014 3.97569e-014
rhumerus 7.6184 19.8988 -78.4247
rradius 126.545
rwrist 24.0401
rhand 19.5747 -1.28186
rfingers 7.12502
rthumb 44.1387 -25.1128
lclavicle -7.51406e-014 3.97569e-014
lhumerus 5.15232 -12.3232 78.1526
lradius 133.722
lwrist -13.3275
lhand 10.0934 36.8846
lfingers 7.12502
lthumb 35.2149 63.3902
rfemur -38.4158 -4.76919 15.9618
rtibia 62.3207
rfoot -26.7352 -16.6563
rtoes -10.2121
lfemur -39.0018 -3.16948 -21.9256
ltibia 57.3255
lfoot -21.9562 1.9789
ltoes -17.5851
957
root -0.314381 16.4285 -1.98038 5.37034 8.52934 4.36683
lowerback 18.9604 5.14599 0.474573
upperback 10.0954 6.7943 -2.3552
thorax 0.683426 3.5325 -3.95076
lowerneck 5.94838 -1.38818 -3.04546
upperneck -7.29136 -1.97059 2.11577
head -3.35454 -0.977503 1.32326
rclavicle 1.19271e-014 -2.26615e-014
rhumerus 7.81438 19.7871 -78.3087
rradius 126.535
rwrist 24.0555
rhand 19.7088 -1.33601
rfingers 7.12502
rthumb 44.2637 -25.1198
lclavicle 1.19271e-014 -2.26615e-014
lhumerus 5.33725 -12.3044 78.1419
lradius 133.645
lwrist -13.3603
lhand 10.1296 36.748
lfingers 7.12502
lthumb 35.2493 63.2455
rfemur -38.4408 -4.69192 15.8872
rtibia 62.2262
rfoot -26.7163 -16.6289
rtoes -10.1044
lfemur -38.9384 -3.08808 -21.9884
ltibia 57.3005
lfoot -21.9964 2.06575
ltoes -17.3375
